<svg width="1440" height="76" viewBox="0 0 1440 76" fill="none" xmlns="http://www.w3.org/2000/svg">
<path d="M7.14856 66.4429C7.14856 65.2416 6.13214 64.2251 4.9308 64.2251C3.72947 64.2251 2.71293 65.2416 2.71293 66.4429C2.71293 67.6442 3.72947 68.6608 4.9308 68.6608C6.13214 68.6608 7.14856 67.6442 7.14856 66.4429Z" fill="#4C6071"/>
<path d="M60.5618 66.4433C60.5618 62.1 57.0502 58.5884 52.7069 58.5884C48.3636 58.5884 44.852 62.1 44.852 66.4433C44.852 70.7865 48.3636 74.2981 52.7069 74.2981C57.0502 74.2981 60.5618 70.7865 60.5618 66.4433Z" fill="#4C6071"/>
<path d="M106.397 66.4432C106.397 63.1164 103.717 60.4365 100.391 60.4365C97.0639 60.4365 94.384 63.1164 94.384 66.4432C94.384 69.77 97.0639 72.4499 100.391 72.4499C103.717 72.4499 106.397 69.77 106.397 66.4432Z" fill="#4C6071"/>
<path d="M156.114 66.443C156.114 62.0073 152.51 58.4033 148.074 58.4033C143.639 58.4033 140.035 62.0073 140.035 66.443C140.035 70.8787 143.639 74.4827 148.074 74.4827C152.51 74.4827 156.114 70.8787 156.114 66.443Z" fill="#4C6071"/>
<path d="M201.488 66.4433C201.488 63.3013 198.9 60.7139 195.758 60.7139C192.616 60.7139 190.029 63.3013 190.029 66.4433C190.029 69.5852 192.616 72.1727 195.758 72.1727C198.993 72.0803 201.488 69.5852 201.488 66.4433Z" fill="#4C6071"/>
<path d="M247.785 66.4432C247.785 64.133 245.845 62.1924 243.534 62.1924C241.224 62.1924 239.283 64.133 239.283 66.4432C239.283 68.7535 241.224 70.6941 243.534 70.6941C245.845 70.6941 247.785 68.7535 247.785 66.4432Z" fill="#4C6071"/>
<path d="M300.182 66.4428C300.182 61.4526 296.116 57.479 291.218 57.479C286.228 57.479 282.254 61.545 282.254 66.4428C282.254 71.4329 286.32 75.4066 291.218 75.4066C296.208 75.4066 300.182 71.3405 300.182 66.4428Z" fill="#4C6071"/>
<path d="M340.473 66.4429C340.473 65.6112 339.826 64.9644 338.994 64.9644C338.163 64.9644 337.516 65.6112 337.516 66.4429C337.516 67.2746 338.163 67.9215 338.994 67.9215C339.826 67.9215 340.473 67.2746 340.473 66.4429Z" fill="#4C6071"/>
<path d="M394.441 66.4431C394.441 62.0998 390.929 58.6807 386.678 58.6807C382.335 58.6807 378.916 62.1922 378.916 66.4431C378.916 70.7864 382.427 74.2056 386.678 74.2056C390.929 74.2056 394.441 70.694 394.441 66.4431Z" fill="#4C6071"/>
<path d="M437.134 66.4432C437.134 64.8722 435.933 63.6709 434.362 63.6709C432.791 63.6709 431.589 64.8722 431.589 66.4432C431.589 68.0142 432.791 69.2155 434.362 69.2155C435.933 69.2155 437.134 67.9218 437.134 66.4432Z" fill="#4C6071"/>
<path d="M489.254 66.4432C489.254 62.4695 486.019 59.3276 482.138 59.3276C478.164 59.3276 475.022 62.562 475.022 66.4432C475.022 70.4168 478.257 73.5588 482.138 73.5588C486.019 73.5588 489.254 70.4168 489.254 66.4432Z" fill="#4C6071"/>
<path d="M535.643 66.443C535.643 63.2087 532.964 60.5288 529.729 60.5288C526.495 60.5288 523.815 63.1163 523.815 66.443C523.815 69.6774 526.402 72.3573 529.729 72.3573C533.056 72.2649 535.643 69.6774 535.643 66.443Z" fill="#4C6071"/>
<path d="M579.446 66.4429C579.446 65.4264 578.614 64.5947 577.598 64.5947C576.581 64.5947 575.75 65.4264 575.75 66.4429C575.75 67.4594 576.581 68.2911 577.598 68.2911C578.614 68.2911 579.446 67.4594 579.446 66.4429Z" fill="#4C6071"/>
<path d="M626.298 66.4428C626.298 65.8883 625.836 65.4263 625.282 65.4263C624.727 65.4263 624.265 65.8883 624.265 66.4428C624.265 66.9972 624.727 67.4593 625.282 67.4593C625.836 67.4593 626.298 66.9972 626.298 66.4428Z" fill="#4C6071"/>
<path d="M681.467 66.4428C681.467 61.7299 677.678 57.8486 672.965 57.8486C668.252 57.8486 664.371 61.6374 664.371 66.4428C664.371 71.1557 668.16 74.9445 672.965 74.9445C677.678 74.9445 681.467 71.1557 681.467 66.4428Z" fill="#4C6071"/>
<path d="M728.689 66.443C728.689 62.0073 725.085 58.4033 720.649 58.4033C716.213 58.4033 712.609 62.0073 712.609 66.443C712.609 70.8787 716.213 74.4827 720.649 74.4827C725.085 74.3903 728.689 70.8787 728.689 66.443Z" fill="#4C6071"/>
<path d="M775.356 66.4431C775.356 62.5619 772.214 59.4199 768.333 59.4199C764.452 59.4199 761.31 62.5619 761.31 66.4431C761.31 70.3243 764.452 73.4663 768.333 73.4663C772.214 73.3739 775.356 70.2319 775.356 66.4431Z" fill="#4C6071"/>
<path d="M818.789 66.4431C818.789 64.9645 817.587 63.7632 816.109 63.7632C814.63 63.7632 813.429 64.9645 813.429 66.4431C813.429 67.9216 814.63 69.123 816.109 69.123C817.587 69.0306 818.789 67.8292 818.789 66.4431Z" fill="#4C6071"/>
<path d="M870.169 66.4431C870.169 62.9315 867.304 60.1592 863.885 60.1592C860.374 60.1592 857.601 63.0239 857.601 66.4431C857.601 69.9547 860.466 72.727 863.885 72.727C867.304 72.727 870.169 69.8623 870.169 66.4431Z" fill="#4C6071"/>
<path d="M916.282 66.443C916.282 63.7631 914.156 61.6377 911.476 61.6377C908.796 61.6377 906.671 63.7631 906.671 66.443C906.671 69.1229 908.796 71.2483 911.476 71.2483C914.156 71.2483 916.282 69.0305 916.282 66.443Z" fill="#4C6071"/>
<path d="M966.553 66.4429C966.553 62.4692 963.319 59.2349 959.345 59.2349C955.371 59.2349 952.137 62.4692 952.137 66.4429C952.137 70.4165 955.371 73.6509 959.345 73.6509C963.226 73.6509 966.553 70.4165 966.553 66.4429Z" fill="#4C6071"/>
<path d="M1009.34 66.4432C1009.34 65.1494 1008.23 64.0405 1006.94 64.0405C1005.64 64.0405 1004.53 65.1494 1004.53 66.4432C1004.53 67.7369 1005.64 68.8459 1006.94 68.8459C1008.32 68.8459 1009.34 67.7369 1009.34 66.4432Z" fill="#4C6071"/>
<path d="M1063.4 66.4429C1063.4 61.6375 1059.52 57.7563 1054.71 57.7563C1049.91 57.7563 1046.03 61.6375 1046.03 66.4429C1046.03 71.2482 1049.91 75.1295 1054.71 75.1295C1059.43 75.1295 1063.4 71.2482 1063.4 66.4429Z" fill="#4C6071"/>
<path d="M1104.24 66.4429C1104.24 65.4264 1103.41 64.5947 1102.4 64.5947C1101.38 64.5947 1100.55 65.4264 1100.55 66.4429C1100.55 67.4594 1101.38 68.2911 1102.4 68.2911C1103.41 68.1987 1104.24 67.4594 1104.24 66.4429Z" fill="#4C6071"/>
<path d="M1153.04 66.4429C1153.04 64.872 1151.74 63.4858 1150.08 63.4858C1148.51 63.4858 1147.12 64.7795 1147.12 66.4429C1147.12 68.0139 1148.42 69.3077 1150.08 69.3077C1151.74 69.3077 1153.04 68.0139 1153.04 66.4429Z" fill="#4C6071"/>
<path d="M1202.75 66.4431C1202.75 63.7632 1200.54 61.5454 1197.86 61.5454C1195.18 61.5454 1192.96 63.7632 1192.96 66.4431C1192.96 69.123 1195.18 71.3409 1197.86 71.3409C1200.54 71.3409 1202.75 69.123 1202.75 66.4431Z" fill="#4C6071"/>
<path d="M1246.46 66.4431C1246.46 65.8887 1246 65.519 1245.54 65.519C1244.99 65.519 1244.62 65.9811 1244.62 66.4431C1244.62 66.9976 1245.08 67.3673 1245.54 67.3673C1246.09 67.3673 1246.46 66.9976 1246.46 66.4431Z" fill="#4C6071"/>
<path d="M1300.34 66.4432C1300.34 62.4695 1297.1 59.3276 1293.22 59.3276C1289.25 59.3276 1286.11 62.562 1286.11 66.4432C1286.11 70.4168 1289.34 73.5588 1293.22 73.5588C1297.2 73.5588 1300.34 70.3244 1300.34 66.4432Z" fill="#4C6071"/>
<path d="M1349.87 66.4432C1349.87 61.5454 1345.9 57.5718 1341 57.5718C1336.1 57.5718 1332.13 61.5454 1332.13 66.4432C1332.13 71.3409 1336.1 75.3146 1341 75.3146C1345.9 75.3146 1349.87 71.3409 1349.87 66.4432Z" fill="#4C6071"/>
<path d="M1389.98 66.4431C1389.98 65.7038 1389.42 65.1494 1388.68 65.1494C1387.94 65.1494 1387.39 65.7038 1387.39 66.4431C1387.39 67.1824 1387.94 67.7369 1388.68 67.7369C1389.42 67.7369 1389.98 67.1824 1389.98 66.4431Z" fill="#4C6071"/>
<path d="M1442.84 66.4432C1442.84 62.9316 1439.97 60.0669 1436.46 60.0669C1432.95 60.0669 1430.08 62.9316 1430.08 66.4432C1430.08 69.9548 1432.95 72.8195 1436.46 72.8195C1439.97 72.8195 1442.84 69.9548 1442.84 66.4432Z" fill="#4C6071"/>
<path d="M11.954 8.40929C11.954 4.52806 8.81205 1.47852 4.93081 1.47852C1.04958 1.47852 -1.99996 4.62047 -1.99996 8.40929C-1.99996 12.2905 1.14199 15.3401 4.93081 15.3401C8.81205 15.4325 11.954 12.2905 11.954 8.40929Z" fill="#4C6071"/>
<path d="M58.1592 8.40937C58.1592 5.35983 55.6641 2.86475 52.6146 2.86475C49.565 2.86475 47.0699 5.35983 47.0699 8.40937C47.0699 11.4589 49.565 13.954 52.6146 13.954C55.7565 13.954 58.1592 11.4589 58.1592 8.40937Z" fill="#4C6071"/>
<path d="M107.599 8.40917C107.599 4.43552 104.364 1.20117 100.391 1.20117C96.4171 1.20117 93.1828 4.43552 93.1828 8.40917C93.1828 12.3828 96.4171 15.6172 100.391 15.6172C104.364 15.7096 107.599 12.3828 107.599 8.40917Z" fill="#4C6071"/>
<path d="M151.678 8.40915C151.678 6.46853 150.107 4.80518 148.074 4.80518C146.134 4.80518 144.47 6.37612 144.47 8.40915C144.47 10.3498 146.041 12.0132 148.074 12.0132C150.015 12.0132 151.678 10.3498 151.678 8.40915Z" fill="#4C6071"/>
<path d="M201.118 8.40949C201.118 5.45236 198.715 3.14209 195.851 3.14209C192.893 3.14209 190.583 5.54477 190.583 8.40949C190.583 11.3666 192.986 13.6769 195.851 13.6769C198.715 13.7693 201.118 11.3666 201.118 8.40949Z" fill="#4C6071"/>
<path d="M245.475 8.40935C245.475 7.39283 244.643 6.46875 243.534 6.46875C242.425 6.46875 241.594 7.30042 241.594 8.40935C241.594 9.42586 242.425 10.35 243.534 10.35C244.551 10.35 245.475 9.51827 245.475 8.40935Z" fill="#4C6071"/>
<path d="M297.872 8.40942C297.872 4.713 294.915 1.75586 291.218 1.75586C287.522 1.75586 284.565 4.713 284.565 8.40942C284.565 12.1058 287.522 15.063 291.218 15.063C294.915 15.063 297.872 12.1058 297.872 8.40942Z" fill="#4C6071"/>
<path d="M347.311 8.40932C347.311 3.7888 343.522 0 338.994 0C334.374 0 330.585 3.7888 330.585 8.40932C330.585 13.0298 334.374 16.7263 338.994 16.7263C343.615 16.8187 347.311 13.0298 347.311 8.40932Z" fill="#4C6071"/>
<path d="M392.223 8.40937C392.223 5.35983 389.728 2.86475 386.678 2.86475C383.628 2.86475 381.133 5.35983 381.133 8.40937C381.133 11.4589 383.628 13.954 386.678 13.954C389.728 13.954 392.223 11.4589 392.223 8.40937Z" fill="#4C6071"/>
<path d="M440.738 8.40948C440.738 4.89789 437.873 2.0332 434.362 2.0332C430.85 2.0332 427.985 4.89789 427.985 8.40948C427.985 11.9211 430.85 14.7858 434.362 14.7858C437.873 14.7858 440.738 11.9211 440.738 8.40948Z" fill="#4C6071"/>
<path d="M487.775 8.40947C487.775 5.26752 485.187 2.77246 482.138 2.77246C478.996 2.77246 476.501 5.35993 476.501 8.40947C476.501 11.5514 479.088 14.0465 482.138 14.0465C485.28 14.1389 487.775 11.5514 487.775 8.40947Z" fill="#4C6071"/>
<path d="M536.475 8.40942C536.475 4.713 533.518 1.75586 529.822 1.75586C526.125 1.75586 523.168 4.713 523.168 8.40942C523.168 12.1058 526.125 15.063 529.822 15.063C533.518 15.063 536.475 12.1058 536.475 8.40942Z" fill="#4C6071"/>
<path d="M584.898 8.40943C584.898 4.34337 581.571 1.0166 577.505 1.0166C573.439 1.0166 570.113 4.34337 570.113 8.40943C570.113 12.4755 573.439 15.8023 577.505 15.8023C581.571 15.8023 584.898 12.4755 584.898 8.40943Z" fill="#4C6071"/>
<path d="M632.859 8.4092C632.859 4.25074 629.44 0.831543 625.281 0.831543C621.123 0.831543 617.704 4.25074 617.704 8.4092C617.704 12.5677 621.123 15.9869 625.281 15.9869C629.44 15.9869 632.859 12.5677 632.859 8.4092Z" fill="#4C6071"/>
<path d="M677.955 8.40907C677.955 5.63676 675.738 3.41895 672.965 3.41895C670.193 3.41895 667.975 5.63676 667.975 8.40907C667.975 11.1814 670.193 13.3993 672.965 13.3993C675.738 13.3993 677.955 11.1814 677.955 8.40907Z" fill="#4C6071"/>
<path d="M721.666 8.40946C721.666 7.85499 721.203 7.48535 720.741 7.48535C720.187 7.48535 719.817 7.9474 719.817 8.40946C719.817 8.96392 720.279 9.33356 720.741 9.33356C721.203 9.42597 721.666 8.96392 721.666 8.40946Z" fill="#4C6071"/>
<path d="M770.828 8.40948C770.828 7.11574 769.719 6.00684 768.425 6.00684C767.131 6.00684 766.023 7.11574 766.023 8.40948C766.023 9.70323 767.131 10.8122 768.425 10.8122C769.719 10.8122 770.828 9.70323 770.828 8.40948Z" fill="#4C6071"/>
<path d="M822.023 8.40935C822.023 5.17498 819.343 2.49512 816.109 2.49512C812.875 2.49512 810.195 5.17498 810.195 8.40935C810.195 11.6437 812.875 14.3236 816.109 14.3236C819.343 14.3236 822.023 11.6437 822.023 8.40935Z" fill="#4C6071"/>
<path d="M865.826 8.40935C865.826 7.30042 864.902 6.46875 863.885 6.46875C862.776 6.46875 861.944 7.39283 861.944 8.40935C861.944 9.51827 862.869 10.35 863.885 10.35C864.902 10.4424 865.826 9.51827 865.826 8.40935Z" fill="#4C6071"/>
<path d="M914.249 8.40936C914.249 6.93079 913.047 5.72949 911.569 5.72949C910.09 5.72949 908.889 6.93079 908.889 8.40936C908.889 9.88792 910.09 11.0893 911.569 11.0893C913.047 11.0893 914.249 9.88792 914.249 8.40936Z" fill="#4C6071"/>
<path d="M966.183 8.40929C966.183 4.62047 963.041 1.47852 959.253 1.47852C955.464 1.47852 952.322 4.62047 952.322 8.40929C952.322 12.1981 955.464 15.3401 959.253 15.3401C963.041 15.3401 966.183 12.1981 966.183 8.40929Z" fill="#4C6071"/>
<path d="M1007.95 8.40946C1007.95 7.85499 1007.49 7.48535 1007.03 7.48535C1006.47 7.48535 1006.1 7.9474 1006.1 8.40946C1006.1 8.96392 1006.57 9.33356 1007.03 9.33356C1007.49 9.33356 1007.95 8.96392 1007.95 8.40946Z" fill="#4C6071"/>
<path d="M1060.53 8.40924C1060.53 5.17488 1057.95 2.5874 1054.71 2.5874C1051.48 2.5874 1048.89 5.17488 1048.89 8.40924C1048.89 11.6436 1051.48 14.2311 1054.71 14.2311C1057.85 14.2311 1060.53 11.6436 1060.53 8.40924Z" fill="#4C6071"/>
<path d="M1104.24 8.40924C1104.24 7.39273 1103.41 6.56104 1102.4 6.56104C1101.38 6.56104 1100.55 7.39273 1100.55 8.40924C1100.55 9.42576 1101.38 10.2574 1102.4 10.2574C1103.41 10.2574 1104.24 9.42576 1104.24 8.40924Z" fill="#4C6071"/>
<path d="M1154.61 8.40942C1154.61 5.91434 1152.58 3.88135 1150.08 3.88135C1147.58 3.88135 1145.55 5.91434 1145.55 8.40942C1145.55 10.9045 1147.58 12.9376 1150.08 12.9376C1152.58 12.9376 1154.61 10.9045 1154.61 8.40942Z" fill="#4C6071"/>
<path d="M1202.94 8.40933C1202.94 5.54461 1200.63 3.23438 1197.76 3.23438C1194.9 3.23438 1192.59 5.54461 1192.59 8.40933C1192.59 11.2741 1194.9 13.5843 1197.76 13.5843C1200.63 13.5843 1202.94 11.2741 1202.94 8.40933Z" fill="#4C6071"/>
<path d="M1250.71 8.40933C1250.71 5.54461 1248.4 3.23438 1245.54 3.23438C1242.68 3.23438 1240.37 5.54461 1240.37 8.40933C1240.37 11.2741 1242.68 13.5843 1245.54 13.5843C1248.4 13.5843 1250.71 11.2741 1250.71 8.40933Z" fill="#4C6071"/>
<path d="M1295.9 8.40936C1295.9 6.93079 1294.7 5.72949 1293.22 5.72949C1291.75 5.72949 1290.54 6.93079 1290.54 8.40936C1290.54 9.88792 1291.75 11.0893 1293.22 11.0893C1294.7 11.0893 1295.9 9.88792 1295.9 8.40936Z" fill="#4C6071"/>
<path d="M1348.39 8.40943C1348.39 4.34337 1345.07 1.0166 1341 1.0166C1336.93 1.0166 1333.61 4.34337 1333.61 8.40943C1333.61 12.4755 1336.93 15.8023 1341 15.8023C1345.07 15.8023 1348.39 12.4755 1348.39 8.40943Z" fill="#4C6071"/>
<path d="M1391.27 8.40926C1391.27 7.0231 1390.16 5.82178 1388.68 5.82178C1387.3 5.82178 1386.1 7.0231 1386.1 8.40926C1386.1 9.79541 1387.3 10.9967 1388.68 10.9967C1390.07 10.9967 1391.27 9.88782 1391.27 8.40926Z" fill="#4C6071"/>
<path d="M1439.97 8.40915C1439.97 6.46853 1438.4 4.80518 1436.37 4.80518C1434.43 4.80518 1432.76 6.37612 1432.76 8.40915C1432.76 10.3498 1434.33 12.0132 1436.37 12.0132C1438.4 12.0132 1439.97 10.4422 1439.97 8.40915Z" fill="#4C6071"/>
</svg>
